<svg id="visual" viewBox="0 0 900 600" width="900" height="600" xmlns="http://www.w3.org/2000/svg" xmlns:xlink="http://www.w3.org/1999/xlink" version="1.1"><rect x="0" y="0" width="900" height="600" fill="#001220"></rect><path d="M0 366L15 363.2C30 360.3 60 354.7 90 345.8C120 337 150 325 180 319.5C210 314 240 315 270 321.3C300 327.7 330 339.3 360 345.8C390 352.3 420 353.7 450 355.3C480 357 510 359 540 362.8C570 366.7 600 372.3 630 362.2C660 352 690 326 720 323.2C750 320.3 780 340.7 810 360C840 379.3 870 397.7 885 406.8L900 416L900 601L885 601C870 601 840 601 810 601C780 601 750 601 720 601C690 601 660 601 630 601C600 601 570 601 540 601C510 601 480 601 450 601C420 601 390 601 360 601C330 601 300 601 270 601C240 601 210 601 180 601C150 601 120 601 90 601C60 601 30 601 15 601L0 601Z" fill="#fa7268"></path><path d="M0 443L15 439.3C30 435.7 60 428.3 90 421.2C120 414 150 407 180 399.2C210 391.3 240 382.7 270 380C300 377.3 330 380.7 360 393.2C390 405.7 420 427.3 450 422.3C480 417.3 510 385.7 540 381.2C570 376.7 600 399.3 630 412.5C660 425.7 690 429.3 720 433.8C750 438.3 780 443.7 810 444.3C840 445 870 441 885 439L900 437L900 601L885 601C870 601 840 601 810 601C780 601 750 601 720 601C690 601 660 601 630 601C600 601 570 601 540 601C510 601 480 601 450 601C420 601 390 601 360 601C330 601 300 601 270 601C240 601 210 601 180 601C150 601 120 601 90 601C60 601 30 601 15 601L0 601Z" fill="#ef5f67"></path><path d="M0 490L15 483.2C30 476.3 60 462.7 90 455.3C120 448 150 447 180 444.5C210 442 240 438 270 440.8C300 443.7 330 453.3 360 449C390 444.7 420 426.3 450 430.5C480 434.7 510 461.3 540 475.3C570 489.3 600 490.7 630 476.7C660 462.7 690 433.3 720 418.8C750 404.3 780 404.7 810 405.3C840 406 870 407 885 407.5L900 408L900 601L885 601C870 601 840 601 810 601C780 601 750 601 720 601C690 601 660 601 630 601C600 601 570 601 540 601C510 601 480 601 450 601C420 601 390 601 360 601C330 601 300 601 270 601C240 601 210 601 180 601C150 601 120 601 90 601C60 601 30 601 15 601L0 601Z" fill="#e34c67"></path><path d="M0 496L15 490.8C30 485.7 60 475.3 90 469.3C120 463.3 150 461.7 180 462.5C210 463.3 240 466.7 270 475C300 483.3 330 496.7 360 504.7C390 512.7 420 515.3 450 516.7C480 518 510 518 540 509.3C570 500.7 600 483.3 630 479.3C660 475.3 690 484.7 720 492.7C750 500.7 780 507.3 810 506.8C840 506.3 870 498.7 885 494.8L900 491L900 601L885 601C870 601 840 601 810 601C780 601 750 601 720 601C690 601 660 601 630 601C600 601 570 601 540 601C510 601 480 601 450 601C420 601 390 601 360 601C330 601 300 601 270 601C240 601 210 601 180 601C150 601 120 601 90 601C60 601 30 601 15 601L0 601Z" fill="#d53867"></path><path d="M0 519L15 520.8C30 522.7 60 526.3 90 530.2C120 534 150 538 180 544C210 550 240 558 270 553.8C300 549.7 330 533.3 360 530.3C390 527.3 420 537.7 450 540C480 542.3 510 536.7 540 537.5C570 538.3 600 545.7 630 546C660 546.3 690 539.7 720 540C750 540.3 780 547.7 810 545.7C840 543.7 870 532.3 885 526.7L900 521L900 601L885 601C870 601 840 601 810 601C780 601 750 601 720 601C690 601 660 601 630 601C600 601 570 601 540 601C510 601 480 601 450 601C420 601 390 601 360 601C330 601 300 601 270 601C240 601 210 601 180 601C150 601 120 601 90 601C60 601 30 601 15 601L0 601Z" fill="#c62368"></path></svg>